<svg width="36" height="36" viewBox="0 0 36 36" fill="none" xmlns="http://www.w3.org/2000/svg">
<path d="M29.3092 26.0506H11.182C9.77752 26.0506 8.67038 25.0352 8.54867 23.6362C8.46596 22.6807 8.86652 21.8224 9.56956 21.297L6.72824 8.57487C6.64986 8.22473 6.73494 7.85843 6.95904 7.5784C7.18315 7.29836 7.52266 7.1357 7.88108 7.1357H34.5424C34.9252 7.1357 35.2844 7.32121 35.5058 7.63314C35.7275 7.94508 35.7839 8.34525 35.6578 8.70642L32.5865 17.5069C32.1568 18.7397 31.0906 19.6452 29.8046 19.8697L11.1399 23.1312C11.1356 23.1316 11.1316 23.1324 11.1273 23.1332C11.0375 23.149 10.8819 23.1828 10.9036 23.4322C10.9256 23.6874 11.0926 23.6874 11.1824 23.6874H29.3096C29.9622 23.6874 30.4911 24.2163 30.4911 24.869C30.4911 25.5216 29.9618 26.0506 29.3092 26.0506Z" fill="#827261"/>
<path d="M11.4029 32.6911C12.8168 32.6911 13.963 31.5449 13.963 30.131C13.963 28.7171 12.8168 27.5709 11.4029 27.5709C9.98897 27.5709 8.84277 28.7171 8.84277 30.131C8.84277 31.5449 9.98897 32.6911 11.4029 32.6911Z" fill="#827261"/>
<path d="M27.1734 32.6911C28.5873 32.6911 29.7335 31.5449 29.7335 30.131C29.7335 28.7171 28.5873 27.5709 27.1734 27.5709C25.7595 27.5709 24.6133 28.7171 24.6133 30.131C24.6133 31.5449 25.7595 32.6911 27.1734 32.6911Z" fill="#827261"/>
<path d="M7.88028 9.49927C7.33911 9.49927 6.85111 9.1251 6.72823 8.57488L6.18667 6.15065C5.96847 5.17387 5.11694 4.4917 4.11574 4.4917H1.45795C0.805325 4.4917 0.276367 3.96274 0.276367 3.31011C0.276367 2.65748 0.805325 2.12852 1.45795 2.12852H4.11613C6.23196 2.12852 8.03191 3.57085 8.49313 5.63548L9.03469 8.0597C9.17687 8.69658 8.77592 9.32833 8.13904 9.47052C8.052 9.48982 7.96535 9.49927 7.88028 9.49927Z" fill="#827261"/>
</svg>
