<svg width="66" height="60" viewBox="0 0 66 60" fill="none" xmlns="http://www.w3.org/2000/svg">
<path d="M2.03125 45C2.03125 47.0625 3.85981 48.75 6.09472 48.75H58.9198C61.1547 48.75 62.9833 47.0625 62.9833 45V22.5H2.03125V45ZM8.12645 35.625H32.5073C33.6288 35.625 34.539 36.465 34.539 37.5C34.539 38.535 33.6288 39.375 32.5073 39.375H8.12645C7.00493 39.375 6.09472 38.535 6.09472 37.5C6.09472 36.465 7.00493 35.625 8.12645 35.625ZM8.12645 41.25H18.2851C19.4066 41.25 20.3169 42.09 20.3169 43.125C20.3169 44.16 19.4066 45 18.2851 45H8.12645C7.00493 45 6.09472 44.16 6.09472 43.125C6.09472 42.09 7.00493 41.25 8.12645 41.25ZM62.9833 15V16.875H2.03125V15C2.03125 12.9375 3.85981 11.25 6.09472 11.25H58.9198C61.1547 11.25 62.9833 12.9375 62.9833 15Z" fill="#9D8B77"/>
</svg>
