<svg width="13" height="13" viewBox="0 0 13 13" fill="none" xmlns="http://www.w3.org/2000/svg">
<path d="M4.87482 10.2916C4.80369 10.2917 4.73323 10.2777 4.66752 10.2505C4.6018 10.2233 4.54213 10.1833 4.49193 10.1329L1.24193 6.88288C1.14347 6.7807 1.08904 6.64396 1.09036 6.50207C1.09167 6.36018 1.14862 6.22447 1.24896 6.12413C1.3493 6.02379 1.48501 5.96684 1.6269 5.96553C1.76879 5.96421 1.90553 6.01864 2.00771 6.1171L4.87482 8.98395L10.9917 2.86711C11.042 2.81679 11.1017 2.77687 11.1674 2.74963C11.2331 2.72239 11.3035 2.70835 11.3746 2.70833C11.4458 2.7083 11.5162 2.72229 11.5819 2.74949C11.6477 2.77669 11.7074 2.81657 11.7577 2.86685C11.808 2.91713 11.848 2.97683 11.8752 3.04254C11.9024 3.10825 11.9165 3.17868 11.9165 3.24982C11.9165 3.32095 11.9025 3.39139 11.8753 3.45712C11.8481 3.52284 11.8083 3.58257 11.758 3.63289L5.25797 10.1329C5.20774 10.1833 5.14803 10.2233 5.08227 10.2505C5.01651 10.2778 4.946 10.2917 4.87482 10.2916Z" fill="#827261"/>
</svg>
