<svg width="60" height="60" viewBox="0 0 60 60" fill="none" xmlns="http://www.w3.org/2000/svg">
<path d="M2.71763 15.8728C2.71763 15.8728 3.20353 3.14931 17.1867 3.56323C31.1699 3.97715 54.7272 3.41926 57.0847 17.3485C59.4423 31.2777 41.9138 57.4444 27.7686 57.4084C15.5671 57.3725 1.96178 34.769 2.71763 15.8728Z" fill="#CFF69B"/>
<path d="M39.0881 12.0756H34.373C29.0821 12.0756 25.6447 15.5849 25.6447 21.0198V25.1409H20.9117C20.4978 25.1409 20.1738 25.4649 20.1738 25.8788V31.8536C20.1738 32.2675 20.4978 32.5915 20.9117 32.5915H25.6447V47.6904C25.6447 48.1043 25.9687 48.4283 26.3826 48.4283H32.5734C32.9873 48.4283 33.3112 48.1043 33.3112 47.6904V32.6095H38.8541C39.268 32.6095 39.592 32.2855 39.592 31.8716V25.8968C39.592 25.6988 39.52 25.5189 39.376 25.3749C39.232 25.2309 39.0521 25.1589 38.8541 25.1589H33.3112V21.6676C33.3112 19.994 33.7071 19.1302 35.9027 19.1302H39.0701C39.484 19.1302 39.8079 18.8062 39.8079 18.3923V12.8134C39.8259 12.4175 39.502 12.0756 39.0881 12.0756Z" fill="#9D8B77"/>
</svg>
