<svg width="1920" height="571" viewBox="0 0 1920 571" fill="none" xmlns="http://www.w3.org/2000/svg">
<path d="M1652.61 58.7546C1872.3 16.467 2107.02 -30.1807 2275.92 25.6911C2463.01 87.579 2201.24 390.8 2155.02 442.297C2150.46 447.368 2146.81 452.866 2142.76 458.348C2124.31 483.356 2052.56 555.109 1830.23 569.296C1559.95 586.542 1628.57 402.137 1371.91 520.873C1115.25 639.609 777.923 477.882 682.5 464.5C634.553 457.776 554.577 489.173 486.838 480.859C480.948 480.136 475.045 479.803 469.142 480.415C328.369 495.004 164.037 536.312 75.3944 560.607C39.9154 570.332 3.04833 549.708 -4.98223 513.808C-32.942 388.818 -79.7156 128.648 17.4632 136.309C140.64 146.02 598.723 93.5887 631.431 89.8144C632.771 89.6597 633.737 89.5174 635.066 89.2827C664.037 84.1672 1036.61 19.6466 1164.35 61.8097C1297.3 105.69 1432.93 101.042 1652.61 58.7546Z" fill="#CFF69B"/>
</svg>
