<svg width="60" height="60" viewBox="0 0 60 60" fill="none" xmlns="http://www.w3.org/2000/svg">
<path d="M42.1208 9.1754C36.5294 9.12946 30.9268 8.91084 25.3239 9.04889C18.8352 9.21003 13.7732 9.6011 9.94209 14.7899C8.94108 17.2632 8.43506 20.1511 8.19334 23.1654C8.14741 23.9593 8.10122 24.7761 8.04374 25.6159C7.83666 30.7354 8.1818 36.0163 8.06684 40.2038C8.6075 42.9535 9.66598 45.4269 11.6449 47.3137C18.2026 53.5607 31.548 51.6164 40.2915 51.2713C44.4908 49.7412 47.988 48.4756 49.8633 43.6782C51.3475 39.9046 51.1057 35.0956 51.2094 31.0461C51.4049 22.7163 51.7732 11.2233 42.1208 9.1754Z" fill="#CFF69B"/>
<path d="M39.5552 12.1436C50.7261 13.5816 47.4475 29.7688 47.1368 37.6149C46.9641 41.9292 46.1935 45.2655 41.7412 46.761C35.8853 48.7284 27.2567 48.0725 21.2859 47.1983C17.2936 46.623 14.1644 45.4264 13.0599 41.2849C11.3112 34.7387 11.8059 25.88 12.5652 19.2073C12.5883 19.0808 12.6227 18.9887 12.6802 18.9081C12.7836 8.92242 33.7452 11.3958 39.5552 12.1436Z" fill="#827261"/>
<path d="M44.1915 18.2296C44.2146 15.4799 40.7862 14.6057 38.9453 16.2969C38.4506 16.757 38.2204 17.4588 38.186 18.2181C38.37 19.196 38.9569 20.1624 39.7162 20.7146C41.4995 21.9686 44.1685 20.3004 44.1915 18.2296Z" fill="#CFF69B"/>
<path d="M39.0949 23.5792C35.1604 17.6199 26.2786 17.033 21.5043 22.3137C18.2485 25.9146 18.0183 31.9086 20.4689 36.1653C20.6069 36.2113 20.7334 36.2918 20.8486 36.4299C24.8293 40.8707 31.686 42.4813 36.6102 38.4547C41.0048 34.8538 42.2932 28.4226 39.0949 23.5792Z" fill="#CFF69B"/>
<path d="M23.4143 31.7478C24.8064 35.6594 29.7534 38.7656 33.6994 36.3497C41.6721 31.4716 32.3074 18.2184 25.7381 24.0971C23.4143 25.4661 22.5054 29.182 23.4143 31.7478Z" fill="#827261"/>
</svg>
