<svg width="1920" height="822" viewBox="0 0 1920 822" fill="none" xmlns="http://www.w3.org/2000/svg">
<path d="M467.538 179.74C276.186 133.52 94.7551 -58.8763 -50.3012 17.8786C-213.04 103.99 28.997 488.902 65.6712 545.34C68.7754 550.117 71.1118 554.959 73.6488 560.06C87.5833 588.076 149.075 682.509 348.581 693.288C583.188 705.964 508.443 597.57 733.62 739.652C958.797 881.733 1034.59 801.179 1116.96 780.917C1186.73 763.757 1718.25 677.139 1879.34 651.023C1906.97 646.544 1928.44 625.188 1932.41 597.482C1952.02 460.654 2000.67 67.0604 1909.34 81.2486C1803.93 97.6226 1412.92 47.8886 1377.23 43.2864C1375.3 43.0375 1373.88 42.7826 1371.98 42.3702C1339.8 35.3934 1022.11 -31.4258 913.767 25.7859C799.586 86.0778 658.889 225.959 467.538 179.74Z" fill="#827261"/>
</svg>
