<svg width="30" height="30" viewBox="0 0 30 30" fill="none" xmlns="http://www.w3.org/2000/svg">
<path d="M12.8572 10.1021H27.5511C28.9036 10.1021 30 9.00565 30 7.65308C30 6.30051 28.9036 5.2041 27.5511 5.2041H12.8572C11.5046 5.2041 10.4082 6.30051 10.4082 7.65308C10.4082 9.00565 11.5046 10.1021 12.8572 10.1021Z" fill="#827261"/>
<path d="M27.5511 12.551H12.8572C11.5046 12.551 10.4082 13.6474 10.4082 15C10.4082 16.3526 11.5046 17.449 12.8572 17.449H27.5511C28.9036 17.449 30 16.3526 30 15C30 13.6474 28.9036 12.551 27.5511 12.551Z" fill="#827261"/>
<path d="M27.5511 19.8979H12.8572C11.5046 19.8979 10.4082 20.9944 10.4082 22.3469C10.4082 23.6995 11.5046 24.7959 12.8572 24.7959H27.5511C28.9036 24.7959 30 23.6995 30 22.3469C30 20.9944 28.9036 19.8979 27.5511 19.8979Z" fill="#827261"/>
<path d="M3.67347 4.5918H2.44898C1.09641 4.5918 0 5.6882 0 7.04078V8.26527C0 9.61784 1.09641 10.7142 2.44898 10.7142H3.67347C5.02604 10.7142 6.12245 9.61784 6.12245 8.26527V7.04078C6.12245 5.6882 5.02604 4.5918 3.67347 4.5918Z" fill="#827261"/>
<path d="M3.67347 11.9387H2.44898C1.09641 11.9387 0 13.0351 0 14.3877V15.6122C0 16.9648 1.09641 18.0612 2.44898 18.0612H3.67347C5.02604 18.0612 6.12245 16.9648 6.12245 15.6122V14.3877C6.12245 13.0351 5.02604 11.9387 3.67347 11.9387Z" fill="#827261"/>
<path d="M3.67347 19.2856H2.44898C1.09641 19.2856 0 20.3821 0 21.7346V22.9591C0 24.3117 1.09641 25.4081 2.44898 25.4081H3.67347C5.02604 25.4081 6.12245 24.3117 6.12245 22.9591V21.7346C6.12245 20.3821 5.02604 19.2856 3.67347 19.2856Z" fill="#827261"/>
</svg>
