<svg width="22" height="22" viewBox="0 0 22 22" fill="none" xmlns="http://www.w3.org/2000/svg">
<path d="M17.417 10.0834H11.917V4.58341C11.917 4.3403 11.8204 4.10714 11.6485 3.93523C11.4766 3.76333 11.2434 3.66675 11.0003 3.66675C10.7572 3.66675 10.5241 3.76333 10.3521 3.93523C10.1802 4.10714 10.0837 4.3403 10.0837 4.58341V10.0834H4.58366C4.34054 10.0834 4.10739 10.18 3.93548 10.3519C3.76357 10.5238 3.66699 10.757 3.66699 11.0001C3.66699 11.2432 3.76357 11.4764 3.93548 11.6483C4.10739 11.8202 4.34054 11.9167 4.58366 11.9167H10.0837V17.4167C10.0837 17.6599 10.1802 17.893 10.3521 18.0649C10.5241 18.2368 10.7572 18.3334 11.0003 18.3334C11.2434 18.3334 11.4766 18.2368 11.6485 18.0649C11.8204 17.893 11.917 17.6599 11.917 17.4167V11.9167H17.417C17.6601 11.9167 17.8933 11.8202 18.0652 11.6483C18.2371 11.4764 18.3337 11.2432 18.3337 11.0001C18.3337 10.757 18.2371 10.5238 18.0652 10.3519C17.8933 10.18 17.6601 10.0834 17.417 10.0834Z" fill="black"/>
</svg>
