<svg width="24" height="21" viewBox="0 0 24 21" fill="none" xmlns="http://www.w3.org/2000/svg">
<path d="M0.761595 1.54326C0.351505 1.54326 0 1.19163 0 0.76186C0 0.351628 0.351505 0 0.761595 0H2.75346C2.77299 0 2.81204 0 2.83157 0C3.53458 0.0195349 4.15948 0.156279 4.68674 0.488372C5.27258 0.859535 5.7022 1.42605 5.93653 2.26605C5.93653 2.28558 5.93653 2.30512 5.95606 2.32465L6.15134 3.10605H23.2384C23.668 3.10605 24 3.45767 24 3.86791C24 3.94605 23.9805 4.02419 23.9609 4.10233L21.9691 12.1312C21.891 12.4828 21.5785 12.7172 21.227 12.7172H8.72905C9.00244 13.733 9.27583 14.28 9.64687 14.534C10.096 14.827 10.8771 14.8465 12.1855 14.827H12.205H21.0317C21.4613 14.827 21.7933 15.1786 21.7933 15.5888C21.7933 16.0186 21.4418 16.3507 21.0317 16.3507H12.205C10.5842 16.3702 9.58828 16.3312 8.78763 15.8037C7.96745 15.2567 7.53784 14.3191 7.10822 12.6195L4.49146 2.71535C4.49146 2.69581 4.49146 2.69581 4.47193 2.67628C4.35476 2.24651 4.15948 1.95349 3.88609 1.79721C3.61269 1.6214 3.24166 1.54326 2.81204 1.54326C2.79251 1.54326 2.77299 1.54326 2.75346 1.54326H0.761595ZM18.7469 17.2493C19.7819 17.2493 20.6216 18.0893 20.6216 19.1247C20.6216 20.16 19.7819 21 18.7469 21C17.712 21 16.8723 20.16 16.8723 19.1247C16.8723 18.0893 17.712 17.2493 18.7469 17.2493ZM10.5256 17.2493C11.5606 17.2493 12.4003 18.0893 12.4003 19.1247C12.4003 20.16 11.5606 21 10.5256 21C9.49064 21 8.65094 20.16 8.65094 19.1247C8.65094 18.0893 9.49064 17.2493 10.5256 17.2493ZM6.58096 4.62977L8.31896 11.174H20.6412L22.262 4.62977H6.58096Z" fill="#CFF69B"/>
</svg>
