<svg width="32" height="28" viewBox="0 0 32 28" fill="none" xmlns="http://www.w3.org/2000/svg">
<g clip-path="url(#clip0_345_16744)">
<path d="M1.01546 2.05696C0.468674 2.05696 0 1.58828 0 1.01546C0 0.468674 0.468674 0 1.01546 0H3.67128C3.69731 0 3.74939 0 3.77543 0C4.71277 0.0260374 5.54597 0.208299 6.24898 0.650936C7.03011 1.14565 7.60293 1.90073 7.91538 3.02034C7.91538 3.04638 7.91538 3.07242 7.94142 3.09845L8.20179 4.13995H30.9845C31.5574 4.13995 32 4.60862 32 5.15541C32 5.25956 31.974 5.36371 31.9479 5.46786L29.2921 16.1692C29.188 16.6379 28.7714 16.9504 28.3027 16.9504H11.6387C12.0033 18.3043 12.3678 19.0334 12.8625 19.3718C13.4614 19.7624 14.5028 19.7884 16.2474 19.7624H16.2734H28.0423C28.6151 19.7624 29.0578 20.2311 29.0578 20.7779C29.0578 21.3507 28.5891 21.7933 28.0423 21.7933H16.2734C14.1123 21.8194 12.7844 21.7673 11.7168 21.0643C10.6233 20.3352 10.0504 19.0854 9.47762 16.8202L5.98861 3.6192C5.98861 3.59316 5.98861 3.59316 5.96257 3.56713C5.80635 2.9943 5.54597 2.60374 5.18145 2.39544C4.81692 2.16111 4.32221 2.05696 3.74939 2.05696C3.72335 2.05696 3.69731 2.05696 3.67128 2.05696H1.01546ZM24.9959 22.991C26.3759 22.991 27.4955 24.1107 27.4955 25.4906C27.4955 26.8706 26.3759 27.9902 24.9959 27.9902C23.6159 27.9902 22.4963 26.8706 22.4963 25.4906C22.4963 24.1107 23.6159 22.991 24.9959 22.991ZM14.0342 22.991C15.4142 22.991 16.5338 24.1107 16.5338 25.4906C16.5338 26.8706 15.4142 27.9902 14.0342 27.9902C12.6542 27.9902 11.5346 26.8706 11.5346 25.4906C11.5346 24.1107 12.6542 22.991 14.0342 22.991ZM8.77461 6.17087L11.0919 14.8934H27.5216L29.6827 6.17087H8.77461Z" fill="white"/>
</g>
<defs>
<clipPath id="clip0_345_16744">
<rect width="32" height="27.9902" fill="white"/>
</clipPath>
</defs>
</svg>
