<svg width="24" height="24" viewBox="0 0 24 24" fill="none" xmlns="http://www.w3.org/2000/svg">
<path d="M23.8975 0.681232C23.7043 0.238822 23.3699 0.0175877 22.8928 0.0173492H1.10671C0.630202 0.0173492 0.29534 0.238822 0.102423 0.681232C-0.0903754 1.1463 -0.0110266 1.5437 0.340827 1.87266L8.73219 10.2638V18.5358C8.73219 18.8312 8.84003 19.0862 9.05554 19.3021L13.4126 23.659C13.617 23.8745 13.8722 23.9826 14.1787 23.9826C14.3147 23.9826 14.4565 23.954 14.6041 23.8973C15.0468 23.7043 15.2682 23.3697 15.2682 22.8931V10.2638L23.6592 1.87272C24.0112 1.54376 24.0904 1.14648 23.8975 0.681232Z" fill="#9D8B77"/>
</svg>
